# xmcd
#
# Track frame offsets: 
#        182
#        17447
#        38155
#        63410
#        86732
#        109430
#        129485
#        158005
#        181997
#        207090
#        233235
#
# Disc length: 3471 seconds
#
# Revision: 0
# Processed by: cddbd v1.5.2PL0 Copyright (c) Steve Scherf et al.
# Submitted via: ExactAudioCopy v0.95b3
#
DISCID=8b0d8d0b
DTITLE=Marvin Sease - The Real Deal
DYEAR=1989
DGENRE=R&B
TTITLE0=1. Tell Me Why - 3:47
TTITLE1=2. Motel Lover - 4:32
TTITLE2=3. Playing By The Rules - 5:34
TTITLE3=4. I Made You A Woman - 5:07
TTITLE4=5. Can You Give It Back - 4:57
TTITLE5=6. The Thrill Is Gone - 4:26
TTITLE6=7. Everybody's Diggin On Me - 6:15
TTITLE7=8. Right Don't Always Win - 5:14
TTITLE8=9. It's All Over - 5:31
TTITLE9=10. Live My Life Again - 5:44
TTITLE10=11. Stuck In The Middle - 6:02
EXTD=
EXTT0=
EXTT1=
EXTT2=
EXTT3=
EXTT4=
EXTT5=
EXTT6=
EXTT7=
EXTT8=
EXTT9=
EXTT10=
PLAYORDER=
